<svg version="1.2" xmlns="http://www.w3.org/2000/svg" viewBox="0 0 58 94" width="58" height="94">
	<title>admin-logo-svg</title>
	<defs>
		<linearGradient id="g1" x1="19.2" y1="0" x2="44.5" y2="87.7" gradientUnits="userSpaceOnUse">
			<stop offset="0" stop-color="#f9d95c"/>
			<stop offset=".2" stop-color="#a27b2c"/>
			<stop offset=".3" stop-color="#f3d258"/>
			<stop offset=".7" stop-color="#ba9136"/>
			<stop offset="1" stop-color="#eec64c"/>
		</linearGradient>
		<linearGradient id="g2" x1="4.8" y1="55.1" x2="45.9" y2="57.7" gradientUnits="userSpaceOnUse">
			<stop offset="0" stop-color="#ffffff"/>
			<stop offset=".2" stop-color="#a2a3a5"/>
			<stop offset=".5" stop-color="#e8ecf1"/>
			<stop offset=".8" stop-color="#535354"/>
			<stop offset="1" stop-color="#aeaeae"/>
		</linearGradient>
	</defs>
	<style>
		tspan { white-space:pre } 
		.s0 { fill: url(#g1) } 
		.s1 { fill: url(#g2) } 
		.s2 { fill: none } 
		.s3 { fill: #ffffff } 
		.t4 { font-size: 25px;fill: #363636;font-weight: 700;font-family: "MavenPro-Bold", "Maven Pro" } 
	</style>
	<g id="Group_74">
		<g id="Group_27">
			<path id="Path_53" class="s0" d="m0 64.9h4.3q0.1 1.5 0.4 3 0.2 1.5 0.5 2.9 0.4 1.5 0.8 2.9 0.5 1.5 1 2.9 0.5 1 1 2 0.5 1 1.2 2 0.6 0.9 1.3 1.8 0.7 0.9 1.6 1.6 0.7 0.7 1.5 1.3 0.8 0.6 1.6 1.1 0.9 0.5 1.8 0.9 0.9 0.4 1.9 0.7 1 0.2 2 0.5 1 0.2 2 0.3 1.1 0.2 2.1 0.2 1 0.1 2.1 0.1 1.1 0 2.2 0 1.1-0.1 2.2-0.3 1.2-0.1 2.3-0.4 1-0.3 2.1-0.6 0.9-0.3 1.7-0.6 0.8-0.4 1.5-0.9 0.8-0.4 1.5-1 0.7-0.5 1.4-1.1 0.6-0.6 1.1-1.2 0.5-0.7 0.9-1.4 0.5-0.7 0.8-1.4 0.4-0.8 0.6-1.5 0.3-0.9 0.5-1.8 0.2-0.9 0.3-1.8 0.2-0.9 0.2-1.8 0.1-0.9 0.1-1.8 0-1-0.1-2 0-1-0.2-2-0.2-1-0.6-2-0.3-1-0.7-1.9-0.4-0.8-0.9-1.5-0.5-0.7-1-1.4-0.6-0.7-1.2-1.3-0.7-0.6-1.4-1.1-0.8-0.6-1.6-1.1-0.8-0.5-1.7-1-0.9-0.5-1.7-0.9-0.9-0.4-1.9-0.8-4-1.6-8.8-3.3-4.8-1.7-9.1-3.7-1.1-0.4-2.1-0.9-1-0.6-1.9-1.2-1-0.5-1.9-1.2-0.9-0.7-1.8-1.4-0.8-0.7-1.6-1.5-0.8-0.8-1.4-1.7-0.7-0.9-1.2-1.8-0.6-0.9-1.1-1.9-0.5-1.2-0.9-2.5-0.4-1.3-0.6-2.5-0.3-1.3-0.4-2.6-0.1-1.3 0-2.6 0-1.4 0.1-2.7 0.1-1.4 0.3-2.7 0.2-1.3 0.6-2.6 0.4-1.3 0.8-2.5 0.5-1.2 1-2.3 0.6-1.1 1.3-2.1 0.7-1 1.5-2 0.8-0.9 1.7-1.7 1-0.9 2.1-1.7 1-0.8 2.2-1.4 1.1-0.7 2.3-1.2 1.2-0.5 2.4-0.9 1.6-0.5 3.1-0.9 1.6-0.4 3.1-0.6 1.6-0.2 3.2-0.3 1.6-0.1 3.2-0.1 2.8 0 5.9 0.3 3 0.3 6 0.8 3 0.6 5.9 1.3 2.9 0.8 5.4 1.7l0.8 22.4h-4.3q-0.1-1.4-0.3-2.8-0.2-1.4-0.5-2.7-0.3-1.4-0.7-2.7-0.5-1.3-1-2.6-0.4-1-0.9-1.9-0.5-0.8-1.1-1.7-0.6-0.8-1.2-1.6-0.7-0.7-1.5-1.4-0.6-0.6-1.3-1.1-0.7-0.5-1.5-0.9-0.8-0.4-1.6-0.7-0.8-0.3-1.7-0.6-0.8-0.2-1.6-0.4-0.9-0.1-1.8-0.2-0.8-0.2-1.7-0.2-0.9-0.1-1.7-0.1-1.1 0-2.1 0.1-1 0-2 0.2-1.1 0.1-2.1 0.3-1 0.3-2 0.6-0.8 0.2-1.5 0.6-0.8 0.3-1.5 0.7-0.7 0.4-1.4 0.9-0.7 0.5-1.3 1-0.6 0.6-1.1 1.2-0.5 0.6-0.9 1.2-0.5 0.7-0.8 1.4-0.4 0.7-0.6 1.4-0.3 0.8-0.5 1.7-0.3 0.8-0.4 1.7-0.2 0.9-0.2 1.7-0.1 0.9-0.1 1.8 0 1 0.1 2 0.1 0.9 0.3 1.9 0.2 0.9 0.5 1.9 0.3 0.9 0.7 1.8 0.4 0.8 0.9 1.5 0.5 0.7 1.1 1.3 0.6 0.7 1.2 1.3 0.7 0.6 1.4 1.1 0.8 0.6 1.6 1.1 0.9 0.6 1.8 1.1 0.8 0.4 1.7 0.9 1 0.4 1.9 0.8 4.1 1.7 9 3.5 4.5 1.8 8.9 3.7 1 0.5 2 1 1.1 0.5 2 1.1 1 0.7 1.9 1.3 1 0.7 1.8 1.5 0.9 0.7 1.7 1.5 0.8 0.9 1.5 1.8 0.7 0.9 1.3 1.9 0.6 0.9 1.1 2 0.5 1.2 0.9 2.5 0.4 1.3 0.7 2.7 0.3 1.3 0.4 2.7 0.1 1.3 0.1 2.7 0 1.4-0.1 2.8-0.2 1.4-0.4 2.8-0.3 1.4-0.7 2.7-0.4 1.4-1 2.7-0.5 1.2-1.1 2.3-0.7 1.1-1.4 2.1-0.8 1-1.7 1.9-0.9 1-1.9 1.8-1 0.8-2.2 1.6-1.2 0.7-2.4 1.3-1.2 0.7-2.5 1.2-1.3 0.5-2.6 0.9-1.6 0.4-3.2 0.7-1.6 0.4-3.2 0.6-1.6 0.2-3.3 0.3-1.6 0.1-3.2 0.1-3.2 0-6.5-0.3-3.4-0.3-6.7-0.9-3.3-0.7-6.4-1.5-0.8-0.2-1.5-0.4-0.8-0.2-1.5-0.4-0.7-0.2-1.5-0.5-0.7-0.2-1.4-0.5z"/>
			<path id="Path_54" class="s1" d="m10.3 68.1q-0.7-1.1-1.4-2.2-0.7-1.1-1.2-2.2-0.6-1.2-1-2.4-0.5-1.3-0.9-2.6-0.3-1.3-0.5-2.7-0.3-1.3-0.4-2.7-0.1-1.3-0.1-2.7 0-1.4 0.1-2.8 0.1-1.4 0.4-2.8 0.2-1.4 0.6-2.8 0.4-1.4 0.9-2.7 0.4-1.3 1-2.5 0.6-1.2 1.3-2.3 0.7-1.2 1.5-2.2 0.8-1.1 1.7-2.1 0.9-1 1.9-1.9 1-0.8 2.1-1.6 1.1-0.8 2.3-1.4 1.1-0.7 2.4-1.2 1.3-0.6 2.7-1.1 1.4-0.4 2.8-0.7 1.4-0.3 2.8-0.4 1.5-0.1 2.9-0.1 1 0 2.1 0.1 1 0 2 0.2 1 0.1 2 0.3 1 0.2 2 0.5 0.9 0.3 1.7 0.6 0.8 0.3 1.6 0.7 0.8 0.4 1.6 0.9 0.8 0.4 1.5 0.9 0.6 0.5 1.2 1 0.6 0.5 1.1 1 0.5 0.6 1 1.2 0.4 0.6 0.8 1.3 0.4 0.6 0.7 1.2 0.3 0.7 0.4 1.3 0.2 0.7 0.3 1.4 0.1 0.7 0.1 1.4 0 0.4 0 0.9 0 0.4-0.1 0.8-0.1 0.4-0.2 0.8-0.2 0.5-0.4 0.8-0.1 0.3-0.3 0.6-0.2 0.3-0.4 0.6-0.2 0.3-0.4 0.5-0.3 0.3-0.6 0.5-0.2 0.2-0.5 0.4-0.2 0.1-0.5 0.3-0.3 0.1-0.6 0.2-0.3 0.2-0.6 0.3-0.3 0-0.6 0.1-0.3 0.1-0.6 0.1-0.3 0.1-0.6 0.1-0.3 0-0.6 0-0.7 0.1-1.3 0-0.7-0.2-1.3-0.4-0.6-0.3-1.2-0.6-0.5-0.4-1-0.9-0.4-0.5-0.8-1-0.3-0.5-0.5-1.1-0.3-0.6-0.4-1.2-0.1-0.7-0.1-1.3 0.1-0.4 0.1-0.9 0.1-0.4 0.2-0.9 0.1-0.4 0.2-0.8 0.2-0.5 0.3-0.9 0.3-0.5 0.5-0.9 0.3-0.5 0.6-0.9 0.3-0.5 0.7-0.9 0.3-0.4 0.7-0.7-0.5-0.5-1.1-0.8-0.6-0.4-1.2-0.7-0.6-0.2-1.2-0.5-0.7-0.2-1.3-0.3-0.7-0.1-1.3-0.2-0.6-0.2-1.3-0.2-0.6-0.1-1.2-0.1-0.7-0.1-1.3-0.1-0.7 0-1.4 0.1-0.7 0-1.4 0.1-0.7 0.1-1.4 0.2-0.7 0.2-1.4 0.4-0.7 0.2-1.4 0.5-0.7 0.3-1.3 0.8-0.6 0.4-1.1 0.9-0.5 0.5-1 1.1-0.6 0.8-1.1 1.6-0.5 0.9-0.9 1.8-0.5 0.9-0.8 1.8-0.3 1-0.5 1.9-0.4 1.6-0.6 3.1-0.3 1.6-0.4 3.1-0.2 1.6-0.2 3.1-0.1 1.6-0.1 3.2 0 1.4 0.1 2.9 0 1.5 0.2 2.9 0.1 1.5 0.3 2.9 0.3 1.5 0.6 2.9 0.2 1 0.5 1.9 0.3 0.9 0.7 1.8 0.4 0.9 0.9 1.7 0.5 0.8 1.1 1.6 0.4 0.6 0.9 1.1 0.6 0.5 1.2 1 0.6 0.4 1.2 0.7 0.7 0.4 1.4 0.6 0.7 0.2 1.5 0.4 0.7 0.2 1.5 0.3 0.7 0.1 1.5 0.2 0.7 0 1.5 0 0.7 0 1.4 0 0.7-0.1 1.4-0.2 0.7-0.1 1.3-0.2 0.7-0.2 1.4-0.4 0.6-0.2 1.3-0.5 0.6-0.2 1.2-0.6 0.6-0.3 1.1-0.7 0.6-0.3 1.1-0.8 0.3-0.2 0.5-0.4 0.3-0.2 0.5-0.4 0.2-0.3 0.4-0.5 0.2-0.2 0.5-0.5 0 0.5 0.1 1 0.1 0.5 0.1 1.1 0.1 0.5 0.1 1 0 0.5 0 1 0 1.3-0.1 2.5-1.5 0.9-3 1.6-1.6 0.7-3.2 1.2-1.7 0.4-3.4 0.6-1.7 0.2-3.4 0.2-1.4 0-2.9-0.1-1.4-0.2-2.8-0.4-1.4-0.3-2.8-0.7-1.3-0.5-2.7-1-1.1-0.5-2.3-1.2-1.1-0.6-2.2-1.4-1-0.7-2-1.6-1-0.9-1.8-1.8-0.9-1-1.7-2z"/>
			<g id="Path_55">
				<path id="Layer" class="s2" d="m10.3 68.1q-0.7-1.1-1.4-2.2-0.7-1.1-1.2-2.2-0.6-1.2-1-2.4-0.5-1.3-0.9-2.6-0.3-1.3-0.5-2.7-0.3-1.3-0.4-2.7-0.1-1.3-0.1-2.7 0-1.4 0.1-2.8 0.1-1.4 0.4-2.8 0.2-1.4 0.6-2.8 0.4-1.4 0.9-2.7 0.4-1.3 1-2.5 0.6-1.2 1.3-2.3 0.7-1.2 1.5-2.2 0.8-1.1 1.7-2.1 0.9-1 1.9-1.9 1-0.8 2.1-1.6 1.1-0.8 2.3-1.4 1.1-0.7 2.4-1.2 1.3-0.6 2.7-1.1 1.4-0.4 2.8-0.7 1.4-0.3 2.8-0.4 1.5-0.1 2.9-0.1 1 0 2.1 0.1 1 0 2 0.2 1 0.1 2 0.3 1 0.2 2 0.5 0.9 0.3 1.7 0.6 0.8 0.3 1.6 0.7 0.8 0.4 1.6 0.9 0.8 0.4 1.5 0.9 0.6 0.5 1.2 1 0.6 0.5 1.1 1 0.5 0.6 1 1.2 0.4 0.6 0.8 1.3 0.4 0.6 0.7 1.2 0.3 0.7 0.4 1.3 0.2 0.7 0.3 1.4 0.1 0.7 0.1 1.4 0 0.4 0 0.9 0 0.4-0.1 0.8-0.1 0.4-0.2 0.8-0.2 0.5-0.4 0.8-0.1 0.3-0.3 0.6-0.2 0.3-0.4 0.6-0.2 0.3-0.4 0.5-0.3 0.3-0.6 0.5-0.2 0.2-0.5 0.4-0.2 0.1-0.5 0.3-0.3 0.1-0.6 0.2-0.3 0.2-0.6 0.3-0.3 0-0.6 0.1-0.3 0.1-0.6 0.1-0.3 0.1-0.6 0.1-0.3 0-0.6 0-0.7 0.1-1.3 0-0.7-0.2-1.3-0.4-0.6-0.3-1.2-0.6-0.5-0.4-1-0.9-0.4-0.5-0.8-1-0.3-0.5-0.5-1.1-0.3-0.6-0.4-1.2-0.1-0.7-0.1-1.3 0.1-0.4 0.1-0.9 0.1-0.4 0.2-0.9 0.1-0.4 0.2-0.8 0.2-0.5 0.3-0.9 0.3-0.5 0.5-0.9 0.3-0.5 0.6-0.9 0.3-0.5 0.7-0.9 0.3-0.4 0.7-0.7-0.5-0.5-1.1-0.8-0.6-0.4-1.2-0.7-0.6-0.2-1.2-0.5-0.7-0.2-1.3-0.3-0.7-0.1-1.3-0.2-0.6-0.2-1.3-0.2-0.6-0.1-1.2-0.1-0.7-0.1-1.3-0.1-0.7 0-1.4 0.1-0.7 0-1.4 0.1-0.7 0.1-1.4 0.2-0.7 0.2-1.4 0.4-0.7 0.2-1.4 0.5-0.7 0.3-1.3 0.8-0.6 0.4-1.1 0.9-0.5 0.5-1 1.1-0.6 0.8-1.1 1.6-0.5 0.9-0.9 1.8-0.5 0.9-0.8 1.8-0.3 1-0.5 1.9-0.4 1.6-0.6 3.1-0.3 1.6-0.4 3.1-0.2 1.6-0.2 3.1-0.1 1.6-0.1 3.2 0 1.4 0.1 2.9 0 1.5 0.2 2.9 0.1 1.5 0.3 2.9 0.3 1.5 0.6 2.9 0.2 1 0.5 1.9 0.3 0.9 0.7 1.8 0.4 0.9 0.9 1.7 0.5 0.8 1.1 1.6 0.4 0.6 0.9 1.1 0.6 0.5 1.2 1 0.6 0.4 1.2 0.7 0.7 0.4 1.4 0.6 0.7 0.2 1.5 0.4 0.7 0.2 1.5 0.3 0.7 0.1 1.5 0.2 0.7 0 1.5 0 0.7 0 1.4 0 0.7-0.1 1.4-0.2 0.7-0.1 1.3-0.2 0.7-0.2 1.4-0.4 0.6-0.2 1.3-0.5 0.6-0.2 1.2-0.6 0.6-0.3 1.1-0.7 0.6-0.3 1.1-0.8 0.3-0.2 0.5-0.4 0.3-0.2 0.5-0.4 0.2-0.3 0.4-0.5 0.2-0.2 0.5-0.5 0 0.5 0.1 1 0.1 0.5 0.1 1.1 0.1 0.5 0.1 1 0 0.5 0 1 0 1.3-0.1 2.5-1.5 0.9-3 1.6-1.6 0.7-3.2 1.2-1.7 0.4-3.4 0.6-1.7 0.2-3.4 0.2-1.4 0-2.9-0.1-1.4-0.2-2.8-0.4-1.4-0.3-2.8-0.7-1.3-0.5-2.7-1-1.1-0.5-2.3-1.2-1.1-0.6-2.2-1.4-1-0.7-2-1.6-1-0.9-1.8-1.8-0.9-1-1.7-2z"/>
				<path id="Layer" fill-rule="evenodd" class="s3" d="m31.5 80.3c-4.4 0-8.4-0.8-12-2.4-3.5-1.6-6.5-3.8-9-6.5-2.5-2.7-4.4-5.9-5.7-9.4-1.3-3.6-2-7.4-2-11.4 0-4.2 0.7-8.1 2.1-11.8 1.4-3.7 3.4-7 5.9-9.8 2.6-2.7 5.7-5 9.3-6.6 3.7-1.6 7.7-2.4 12.1-2.4 3.1 0 6.1 0.4 8.7 1.2 2.7 0.9 5 2 7 3.4 2 1.4 3.5 3.1 4.7 5.1q1.7 3 1.7 6.3 0 2.5-0.9 4.2-0.9 1.8-2.2 2.8-1.3 1.1-2.9 1.6-1.6 0.4-3 0.4c-2.6 0-4.7-0.8-6.3-2.5q-2.3-2.5-2.3-6 0-2 1-4.3 0.5-1.1 1.3-2.2-1-0.5-2.3-0.7-2.5-0.6-4.6-0.6-2.6 0-5.1 0.7c-1.4 0.4-2.6 1.3-3.7 2.6-1.2 1.5-2.2 3.7-3 6.5-0.8 2.9-1.2 6.9-1.2 11.9 0 4.6 0.4 8.3 1.1 11.1q1.1 4.1 2.8 6.2c1.1 1.4 2.4 2.3 3.8 2.8q2.5 0.8 5.4 0.8 2.6 0 4.9-0.7 2.2-0.7 4.1-2.2 0.8-0.7 1.5-1.6l2.7-3.2 0.8 4.2q0.4 2 0.4 4.4 0 1.3-0.1 2.7l-0.1 0.9-0.8 0.5c-3.8 2.6-8.6 4-14.1 4zm0-2q7.7 0 13-3.6 0.1-1.2 0.1-2.5 0-2.2-0.3-4.1-0.9 1-1.9 1.8-2.1 1.8-4.7 2.6-2.6 0.8-5.5 0.8-3.3 0-6-0.9-2.7-0.9-4.7-3.4-2.1-2.5-3.2-7-1.2-4.5-1.2-11.6 0-7.8 1.3-12.5 1.2-4.6 3.3-7.1 2.1-2.5 4.8-3.3 2.7-0.8 5.6-0.8 2.3 0 5.1 0.6 2.7 0.6 4.8 2.3-1.6 1.6-2.5 3.4-0.8 1.9-0.8 3.5 0 2.7 1.8 4.6 1.8 1.9 4.8 1.9 1.1 0 2.4-0.3 1.2-0.4 2.2-1.2 1.1-0.8 1.7-2.2 0.7-1.3 0.7-3.3 0-2.8-1.5-5.3-1.4-2.6-4.1-4.5-2.7-1.9-6.4-3.1-3.7-1.1-8.1-1.1-6.2 0-11.2 2.3-5.1 2.2-8.7 6.1-3.6 3.9-5.5 9.1-2 5.2-2 11.1 0 5.6 1.9 10.7 1.8 5 5.3 8.8 3.4 3.8 8.3 6 5 2.2 11.2 2.2z"/>
			</g>
		</g>
		<text id="silvercoin" style="transform: matrix(1,0,0,1,-106,129.09)" >
			<tspan x="0" y="0" class="t4">silvercoin
</tspan>
		</text>
	</g>
</svg>