<svg xmlns="http://www.w3.org/2000/svg" width="35.795" height="32.515" viewBox="0 0 35.795 32.515">
  <g id="Icon_feather-briefcase" data-name="Icon feather-briefcase" transform="translate(-1.5 -3)">
    <path id="Path_58" data-name="Path 58" d="M6.279,10.5H32.515a3.279,3.279,0,0,1,3.279,3.279v16.4a3.279,3.279,0,0,1-3.279,3.279H6.279A3.279,3.279,0,0,1,3,30.177v-16.4A3.279,3.279,0,0,1,6.279,10.5Z" transform="translate(0 0.559)" fill="none" stroke="#f8e498" stroke-linecap="round" stroke-linejoin="round" stroke-width="3"/>
    <path id="Path_59" data-name="Path 59" d="M25.118,34.015V7.779A3.279,3.279,0,0,0,21.838,4.5H15.279A3.279,3.279,0,0,0,12,7.779V34.015" transform="translate(0.838 0)" fill="none" stroke="#f8e498" stroke-linecap="round" stroke-linejoin="round" stroke-width="3"/>
  </g>
</svg>
