<svg width="20" height="20" viewBox="0 0 20 20" fill="none" xmlns="http://www.w3.org/2000/svg">
<path d="M20 3.3335H0V16.6665H20V3.3335Z" fill="#F0F0F0"/>
<path d="M20 3.3335H0V7.77784H20V3.3335Z" fill="#F19D3C"/>
<path d="M20 12.2222H0V16.6665H20V12.2222Z" fill="#79A451"/>
<path d="M9.99984 11.7145C10.9468 11.7145 11.7145 10.9468 11.7145 9.99984C11.7145 9.05285 10.9468 8.28516 9.99984 8.28516C9.05285 8.28516 8.28516 9.05285 8.28516 9.99984C8.28516 10.9468 9.05285 11.7145 9.99984 11.7145Z" fill="#2151AE"/>
<path d="M9.99938 11.0715C10.5912 11.0715 11.071 10.5917 11.071 9.99987C11.071 9.40802 10.5912 8.92822 9.99938 8.92822C9.40753 8.92822 8.92773 9.40802 8.92773 9.99987C8.92773 10.5917 9.40753 11.0715 9.99938 11.0715Z" fill="#F0F0F0"/>
<path d="M10.0007 8.67773L10.3314 9.42754L11.146 9.33895L10.662 10.0002L11.146 10.6614L10.3314 10.5728L10.0007 11.3226L9.67012 10.5728L8.85547 10.6614L9.33953 10.0002L8.85547 9.33895L9.67012 9.42754L10.0007 8.67773Z" fill="#2151AE"/>
</svg>
