<svg xmlns="http://www.w3.org/2000/svg" width="32.057" height="37.399" viewBox="0 0 32.057 37.399">
  <path id="Icon_ionic-ios-git-network" data-name="Icon ionic-ios-git-network" d="M30.663,39.649a5.9,5.9,0,0,1-4.433-9.792,5.834,5.834,0,0,1,3.189-1.878v-3.6l-8.891-4.625-8.882,4.625v3.6a5.9,5.9,0,1,1-5.685,1.878A5.834,5.834,0,0,1,9.15,27.979V23.187a.584.584,0,0,1,.326-.526l9.809-5.076V13.921a5.9,5.9,0,1,1,5.677-1.878,5.834,5.834,0,0,1-3.189,1.878v3.665l9.809,5.076a.584.584,0,0,1,.326.526v4.792a5.9,5.9,0,0,1-1.244,11.671Zm-23.675-5.9a3.406,3.406,0,1,0,3.406-3.406A3.41,3.41,0,0,0,6.988,33.747Zm16.947-25.6a3.406,3.406,0,1,0-3.406,3.406A3.41,3.41,0,0,0,23.934,8.152Zm6.729,22.181a3.406,3.406,0,1,0,3.406,3.406A3.41,3.41,0,0,0,30.663,30.333Z" transform="translate(-4.5 -2.25)" fill="#c5b6f1"/>
</svg>
