<svg xmlns="http://www.w3.org/2000/svg" width="122.143" height="142.5" viewBox="0 0 122.143 142.5">
  <path id="Icon_ionic-ios-git-network" data-name="Icon ionic-ios-git-network" d="M104.186,144.75A22.5,22.5,0,0,1,87.3,107.439a22.229,22.229,0,0,1,12.151-7.157V86.573L65.571,68.951,31.728,86.573v13.709a22.471,22.471,0,1,1-21.661,7.157,22.229,22.229,0,0,1,12.151-7.157V82.025a2.226,2.226,0,0,1,1.241-2L60.832,60.681V46.718a22.463,22.463,0,1,1,21.629-7.157,22.229,22.229,0,0,1-12.151,7.157V60.681l37.374,19.339a2.226,2.226,0,0,1,1.241,2v18.258a22.49,22.49,0,0,1-4.739,44.468ZM13.979,122.262a12.978,12.978,0,1,0,12.978-12.978A12.991,12.991,0,0,0,13.979,122.262Zm64.57-97.523A12.978,12.978,0,1,0,65.571,37.716,12.991,12.991,0,0,0,78.549,24.738Zm25.637,84.514a12.978,12.978,0,1,0,12.978,12.978A12.991,12.991,0,0,0,104.186,109.252Z" transform="translate(-4.5 -2.25)" opacity="0.1"/>
</svg>
