<svg xmlns="http://www.w3.org/2000/svg" width="128.382" height="119.165" viewBox="0 0 128.382 119.165">
  <g id="Icon_feather-users" data-name="Icon feather-users" transform="translate(2.5 -0.435)" opacity="0.1">
    <path id="Path_60" data-name="Path 60" d="M100.256,59.534V47.189A24.689,24.689,0,0,0,75.567,22.5H26.189A24.689,24.689,0,0,0,1.5,47.189V59.534" transform="translate(0 56.067)" fill="none" stroke="#000" stroke-linecap="round" stroke-linejoin="round" stroke-width="8"/>
    <path id="Path_61" data-name="Path 61" d="M56.878,29.189A24.689,24.689,0,1,1,32.189,4.5,24.689,24.689,0,0,1,56.878,29.189Z" transform="translate(14.287 0)" fill="none" stroke="#000" stroke-linecap="round" stroke-linejoin="round" stroke-width="8"/>
    <path id="Path_62" data-name="Path 62" d="M48.517,58.926V46.582A24.689,24.689,0,0,0,30,22.7" transform="translate(73.365 56.674)" fill="none" stroke="#000" stroke-linecap="round" stroke-linejoin="round" stroke-width="8"/>
    <path id="Path_63" data-name="Path 63" d="M24,4.7A24.689,24.689,0,0,1,24,52.53" transform="translate(57.915 0.607)" fill="none" stroke="#000" stroke-linecap="round" stroke-linejoin="round" stroke-width="8"/>
  </g>
</svg>
