<svg xmlns="http://www.w3.org/2000/svg" width="40.691" height="33.94" viewBox="0 0 40.691 33.94">
  <g id="Icon_feather-users" data-name="Icon feather-users" transform="translate(0 -2.898)">
    <path id="Path_60" data-name="Path 60" d="M28.912,32.779V29.353A6.853,6.853,0,0,0,22.059,22.5H8.353A6.853,6.853,0,0,0,1.5,29.353v3.426" transform="translate(0 2.559)" fill="none" stroke="#d5e8f5" stroke-linecap="round" stroke-linejoin="round" stroke-width="3"/>
    <path id="Path_61" data-name="Path 61" d="M21.206,11.353A6.853,6.853,0,1,1,14.353,4.5,6.853,6.853,0,0,1,21.206,11.353Z" transform="translate(0.853)" fill="none" stroke="#d5e8f5" stroke-linecap="round" stroke-linejoin="round" stroke-width="3"/>
    <path id="Path_62" data-name="Path 62" d="M35.14,32.752V29.325A6.853,6.853,0,0,0,30,22.7" transform="translate(4.051 2.586)" fill="none" stroke="#d5e8f5" stroke-linecap="round" stroke-linejoin="round" stroke-width="3"/>
    <path id="Path_63" data-name="Path 63" d="M24,4.7a6.853,6.853,0,0,1,0,13.277" transform="translate(3.198 0.028)" fill="none" stroke="#d5e8f5" stroke-linecap="round" stroke-linejoin="round" stroke-width="3"/>
  </g>
</svg>
