<svg xmlns="http://www.w3.org/2000/svg" width="111.25" height="100.925" viewBox="0 0 111.25 100.925">
  <g id="Icon_feather-briefcase" data-name="Icon feather-briefcase" transform="translate(1 -0.5)" opacity="0.1">
    <path id="Path_58" data-name="Path 58" d="M13.325,10.5h82.6A10.325,10.325,0,0,1,106.25,20.825V72.45A10.325,10.325,0,0,1,95.925,82.775h-82.6A10.325,10.325,0,0,1,3,72.45V20.825A10.325,10.325,0,0,1,13.325,10.5Z" transform="translate(0 14.65)" fill="none" stroke="#000" stroke-linecap="round" stroke-linejoin="round" stroke-width="8"/>
    <path id="Path_59" data-name="Path 59" d="M53.3,97.425v-82.6A10.325,10.325,0,0,0,42.975,4.5H22.325A10.325,10.325,0,0,0,12,14.825v82.6" transform="translate(21.975 0)" fill="none" stroke="#000" stroke-linecap="round" stroke-linejoin="round" stroke-width="8"/>
  </g>
</svg>
